<?xml version="1.0" encoding="UTF-8"?>
<svg version="1.1" xmlns="http://www.w3.org/2000/svg" width="1480" height="1063">
<path d="M0 0 C1.32482123 -0.00480972 1.32482123 -0.00480972 2.67640653 -0.0097166 C5.64524748 -0.01803845 8.61388783 -0.01208441 11.5827322 -0.00622082 C13.72961051 -0.00924065 15.87648774 -0.01312928 18.02336305 -0.01781338 C23.93157716 -0.02812685 29.83973081 -0.02590286 35.74794996 -0.02163279 C42.11891456 -0.01917108 48.4898644 -0.02817376 54.86082363 -0.03567028 C67.35602623 -0.04844285 79.85120672 -0.05021282 92.34641469 -0.04787002 C102.5222806 -0.04603557 112.6981402 -0.0478002 122.87400532 -0.05209446 C124.33744966 -0.05269689 125.80089401 -0.05329808 127.26433836 -0.05389806 C129.47005303 -0.05480539 131.67576771 -0.05571405 133.88148239 -0.05663041 C154.40602223 -0.06506578 174.93055969 -0.06939263 195.45510101 -0.06522369 C196.22933744 -0.06506732 197.00357387 -0.06491094 197.801272 -0.06474983 C201.72499022 -0.0639441 205.64870842 -0.06309833 209.57242662 -0.06223653 C210.74119855 -0.06197989 210.74119855 -0.06197989 211.93358203 -0.06171808 C213.50929015 -0.06137142 215.08499826 -0.06102289 216.66070637 -0.06067249 C241.08487887 -0.05533572 265.50901509 -0.06318477 289.93318081 -0.08170605 C317.41770197 -0.10252392 344.90220066 -0.11312851 372.38673013 -0.10913056 C375.33158521 -0.10873529 378.27644028 -0.10837373 381.22129536 -0.10803318 C382.30880626 -0.10789708 382.30880626 -0.10789708 383.41828707 -0.10775824 C394.27364941 -0.10660145 405.12898881 -0.11317117 415.98434544 -0.1238451 C428.38226602 -0.13602392 440.78013333 -0.13704244 453.17805494 -0.12505493 C459.4843107 -0.11923809 465.79046993 -0.11786133 472.09671879 -0.13005733 C495.80845371 -0.17270557 519.4223627 0.04830845 543.08770657 1.648839 C544.01346456 1.71112581 544.93922255 1.77341261 545.89303381 1.8375869 C559.37713836 2.76996791 572.63237446 4.29793568 585.91828823 6.84627247 C588.83831481 7.37869171 591.77276622 7.71716292 594.71955776 8.06697559 C603.96337473 9.48436086 612.90716382 12.52177803 621.83235073 15.24275684 C625.24037778 16.27983014 628.65337625 17.29920931 632.06721401 18.31697559 C634.34743583 19.00356661 636.6273909 19.69104421 638.90705776 20.37947559 C639.95272915 20.69158985 640.99840054 21.00370411 642.07575893 21.32527637 C648.34139068 23.24034324 654.35718232 25.48089404 660.37068081 28.08333302 C663.28815473 29.30957698 666.23706128 30.38498086 669.21955776 31.44197559 C678.27139309 34.90771992 686.68032575 39.59033766 695.15705776 44.25447559 C696.01428432 44.72304981 696.87151089 45.19162403 697.75471401 45.67439747 C715.9903342 55.68904134 733.07874974 67.04729401 749.15705776 80.25447559 C749.68428432 80.68405567 750.21151089 81.11363575 750.75471401 81.55623341 C771.26029128 98.32092833 789.53875112 116.8537815 805.15705776 138.25447559 C805.91067593 139.27879688 805.91067593 139.27879688 806.6795187 140.32381153 C824.72374505 164.9423819 840.11949553 191.46351 850.62971401 220.16463184 C851.73661475 223.17522379 852.91924893 226.14735452 854.12971401 229.11775684 C860.75575371 245.60668569 865.24067149 262.95095434 869.15705776 280.25447559 C869.44492153 281.51106983 869.44492153 281.51106983 869.73860073 282.79304981 C875.99740562 310.93784753 877.53537671 340.20294751 877.53205776 368.94197559 C877.53387051 369.94934772 877.53568325 370.95671986 877.53755093 371.99461842 C877.5340885 388.92088345 877.0530952 406.13091722 873.65705776 422.76619434 C873.06562434 425.70949973 872.60772477 428.66141087 872.15705776 431.62947559 C871.99205776 432.70970997 871.82705776 433.78994434 871.65705776 434.90291309 C871.31460071 437.1984455 870.98173618 439.49542369 870.65705776 441.79353809 C870.49205776 442.93564747 870.32705776 444.07775684 870.15705776 445.25447559 C870.01268276 446.28572559 869.86830776 447.31697559 869.71955776 448.37947559 C869.15705776 451.25447559 869.15705776 451.25447559 868.21955776 453.50447559 C867.26212929 455.98252576 866.75601075 458.12826211 866.27815151 460.72713184 C865.04602272 467.18835322 863.16459945 473.41379444 861.21955776 479.69197559 C861.02619839 480.31642567 860.83283901 480.94087574 860.63362026 481.58424854 C856.30145649 495.4796111 850.99041626 508.91984049 845.15705776 522.25447559 C844.77050014 523.13812794 844.38394253 524.02178028 843.98567104 524.93220997 C832.89797146 549.937053 818.19914709 572.90882836 801.15705776 594.25447559 C800.43260464 595.17228809 799.70815151 596.09010059 798.96174526 597.03572559 C787.35662697 611.5109269 774.34079796 625.28453151 760.15705776 637.25447559 C759.25084682 638.04982716 758.34463589 638.84517872 757.41096401 639.66463184 C739.56279097 655.23425388 719.62952444 667.88382448 699.15705776 679.69197559 C698.32134243 680.17609913 697.4856271 680.66022266 696.62458706 681.15901661 C690.62751045 684.57142262 684.47783293 687.49138959 678.15705776 690.25447559 C679.93164229 694.04059201 682.31552441 696.85045963 685.15705776 699.87947559 C685.64400112 700.40509083 686.13094448 700.93070606 686.6326437 701.47224903 C690.61965563 705.74828707 694.75124093 709.86932418 698.91096401 713.97713184 C700.81668138 715.90936354 702.59419705 717.87093811 704.34455776 719.94197559 C707.8951015 724.10263664 711.77365298 727.9086143 715.65705776 731.75447559 C720.00071666 736.05634343 724.2175455 740.35755479 728.15705776 745.03572559 C731.82906299 749.10935639 735.79038948 752.90577548 739.6861105 756.76399708 C743.36698775 760.42294531 746.87871936 764.1318765 750.22346401 768.10213184 C753.62402717 771.88740518 757.28574155 775.42252824 760.92097378 778.98128223 C763.93972703 781.95588553 766.8280898 784.98011256 769.59455776 788.19197559 C773.24831185 792.42478445 777.16691192 796.34076933 781.15705776 800.25447559 C785.81625198 804.82441321 790.27621793 809.46517005 794.53596401 814.41072559 C796.79952038 816.98518006 799.20408004 819.35921499 801.65705776 821.75447559 C804.72898991 824.75412699 807.63990889 827.77952414 810.43830776 831.03572559 C814.45378551 835.67301124 818.7850366 839.95581049 823.15705776 844.25447559 C831.72401322 852.67769019 831.72401322 852.67769019 835.53205776 857.12947559 C840.11077689 862.45724785 845.15842971 867.32620357 850.15705776 872.25447559 C855.82669945 877.8443167 861.43079223 883.42999017 866.61018276 889.48494434 C868.99344339 892.21125006 871.56550306 894.72814962 874.15705776 897.25447559 C878.05855155 901.10297796 881.7655214 905.01895239 885.31721401 909.19588184 C887.66203103 911.81948814 890.15374351 914.28396688 892.65705776 916.75447559 C906.76750091 930.74846391 906.76750091 930.74846391 907.53205776 937.62947559 C906.98262515 942.94065747 904.70928277 945.75493981 900.93725204 949.3989315 C897.48485326 951.70311513 895.48980248 951.75496029 891.36144924 951.75568104 C890.69059648 951.76121543 890.01974372 951.76674983 889.32856208 951.77245194 C887.08701313 951.78603344 884.84658263 951.77110345 882.60505581 951.75618458 C880.9948266 951.75996909 879.38460065 951.76547022 877.77438259 951.77255726 C873.40170471 951.78652433 869.02941988 951.77532787 864.65676379 951.75884604 C860.0678136 951.74497404 855.47888575 951.75145907 850.88992214 951.75497913 C843.17185571 951.75768256 835.45394463 951.7442046 827.73591518 951.72102833 C818.84797213 951.69452139 809.96029053 951.69263793 801.07232159 951.70441669 C792.49571888 951.71525571 783.91920954 951.70895299 775.34261417 951.69486141 C771.70786516 951.68914395 768.07318546 951.68915083 764.43843555 951.69392681 C760.13816375 951.69875365 755.83817207 951.68836287 751.53795338 951.66697216 C749.97243602 951.66147697 748.40689133 951.66087067 746.84137249 951.66592503 C722.39871992 951.73484897 701.23776965 945.36720913 683.46052456 927.94295216 C678.02942418 922.48759258 672.81386614 916.90263712 667.77595425 911.08284473 C665.50725556 908.52059402 663.10593671 906.14573386 660.65705776 903.75447559 C657.55991374 900.70348715 654.53754643 897.6310405 651.71955776 894.31697559 C648.70352972 890.77768485 645.46258199 887.51952814 642.15705776 884.25447559 C638.25810093 880.40325622 634.54881479 876.49025831 630.99690151 872.31306934 C628.20007834 869.18371518 625.19230428 866.2690593 622.20588589 863.32283497 C618.95688735 860.10065072 615.93254384 856.76098085 612.96565151 853.28181934 C609.98422001 849.93978273 606.7561213 846.8462997 603.57112026 843.69978809 C600.86954482 840.96324081 598.36627041 838.10468193 595.86799526 835.18416309 C594.03905913 833.12139038 592.12125318 831.1885684 590.15705776 829.25447559 C587.57780716 826.71475374 585.13488387 824.12996246 582.78205776 821.37947559 C579.32152758 817.35009113 575.58611577 813.64592681 571.78205776 809.94197559 C569.06265083 807.15782088 566.52201562 804.26415431 563.97346401 801.32478809 C561.11117899 798.06239871 558.13614719 794.90993738 555.15705776 791.75447559 C553.83410474 790.34825979 552.51118913 788.9420088 551.18830776 787.53572559 C550.18477261 786.47031544 550.18477261 786.47031544 549.16096401 785.38338184 C545.98763307 782.01210433 542.82262063 778.63304519 539.65705776 775.25447559 C538.40579357 773.91980465 537.15449142 772.5851693 535.90315151 771.25056934 C533.4157174 768.59734947 530.92877777 765.9436674 528.44221401 763.28963184 C525.33136544 759.96940708 522.21891114 756.65069287 519.10578823 753.33260059 C517.76565811 751.90348664 516.42617597 750.47376487 515.08723354 749.04353809 C504.84711726 738.05008888 504.84711726 738.05008888 494.24690151 727.40681934 C492.38793443 725.49225698 490.65212219 723.52914925 488.91096401 721.50838184 C485.1851697 717.21908036 481.21141148 713.2311597 477.15705776 709.25447559 C472.50037923 704.68700546 468.05085688 700.04721321 463.79572964 695.10262012 C460.62624146 691.52797389 457.08922756 688.33317709 453.61018276 685.06306934 C448.55029188 679.26997771 447.53243457 673.58919529 447.74690151 666.12947559 C448.36767604 661.77814176 449.9196741 659.17882979 453.15705776 656.25447559 C457.96064462 652.89196479 463.05043324 651.11702834 468.57112026 649.20369434 C471.35142978 648.24123423 471.35142978 648.24123423 474.59455776 646.50447559 C477.15705776 645.25447559 477.15705776 645.25447559 481.15705776 645.25447559 C481.15705776 644.59447559 481.15705776 643.93447559 481.15705776 643.25447559 C482.20893276 642.88322559 483.26080776 642.51197559 484.34455776 642.12947559 C489.32309002 640.26916995 494.10341845 638.01408085 498.91096401 635.75447559 C501.13144392 634.72840545 503.36980009 633.74039316 505.62190151 632.78572559 C509.20810418 631.23236488 512.67442723 629.52688578 516.15705776 627.75447559 C520.13151643 625.73176002 524.10610873 623.85079905 528.21369839 622.11726856 C551.47524926 611.78984133 574.40539542 597.97145912 595.15705776 583.25447559 C595.77967495 582.81297169 596.40229214 582.37146778 597.04377651 581.91658497 C605.33928326 575.99713654 613.34935513 569.80756891 621.15705776 563.25447559 C622.14834682 562.44881153 623.13963589 561.64314747 624.16096401 560.81306934 C637.0718725 550.24413961 648.97680933 538.48686682 659.15705776 525.25447559 C659.9292062 524.29928028 660.70135464 523.34408497 661.49690151 522.35994434 C672.36027575 508.71637006 681.25881306 493.77544483 689.15705776 478.25447559 C689.64947964 477.31990528 690.14190151 476.38533497 690.64924526 475.42244434 C693.38426166 470.15470565 695.41589367 464.9208073 697.15705776 459.25447559 C697.63313415 457.83676744 698.11236375 456.4201147 698.59455776 455.00447559 C706.82058747 430.19785475 711.71981915 406.41936464 711.54817104 380.22542286 C711.53208126 377.32121693 711.54814145 374.41840578 711.56721401 371.51424122 C711.59738138 345.22669916 707.82431349 315.6075244 695.09846401 292.10213184 C694.06390059 290.07164015 693.31105213 288.02080431 692.53205776 285.87947559 C674.42237721 240.04373373 633.81337065 204.63656862 589.77033901 184.72322559 C586.91431378 183.52376813 584.04285147 182.38001977 581.15705776 181.25447559 C580.40166714 180.93220997 579.64627651 180.60994434 578.86799526 180.27791309 C576.31941011 179.20067607 573.75163581 178.21631785 571.15705776 177.25447559 C570.24101772 176.9119878 570.24101772 176.9119878 569.30647182 176.56258106 C555.59492983 171.54416977 541.67954173 169.17683889 527.20709622 167.49566185 C525.85256357 167.33630159 524.49861572 167.17188001 523.14534652 167.00212467 C506.36266747 164.9304103 489.58433877 164.96264653 472.70576131 164.9817785 C468.50729601 164.98428824 464.30885305 164.97514414 460.11039639 164.96739674 C452.85565249 164.95543095 445.60093042 164.95024801 438.3461771 164.94951534 C427.83346127 164.94818033 417.32079777 164.93298756 406.80810057 164.91402017 C389.71438381 164.88327348 372.62066573 164.85906446 355.52693081 164.84114552 C354.50683384 164.84007284 353.48673688 164.83900015 352.43572789 164.83789497 C341.05703174 164.82607669 329.67833506 164.81586847 318.29963589 164.80745411 C314.17227585 164.80437983 310.04491582 164.80129108 305.91755581 164.79817677 C304.38975871 164.79702876 304.38975871 164.79702876 302.83109701 164.79585756 C285.79649688 164.78273776 268.7619349 164.75804969 251.72736305 164.72443336 C241.25178087 164.70425021 230.7762805 164.6938391 220.30067872 164.69642257 C213.11488795 164.69746432 205.92916162 164.68771452 198.74339337 164.66978354 C194.61095811 164.65982658 190.4786656 164.65451424 186.34622288 164.66255093 C169.08689915 164.69281541 152.19682659 164.36652969 135.15705776 161.25447559 C133.75743901 161.00047527 133.75743901 161.00047527 132.32954514 160.74134362 C124.14266731 159.24037415 116.15747736 157.71906355 108.28034878 154.98640919 C106.37622394 154.3300258 104.45109101 153.73534808 102.52424526 153.14900684 C93.05984604 150.2165252 84.70141856 146.24554291 76.15705776 141.25447559 C75.50060268 140.87661915 74.84414761 140.4987627 74.16779995 140.10945606 C63.88693541 134.14337139 54.84164629 127.35931545 46.15705776 119.25447559 C45.18204311 118.35317921 45.18204311 118.35317921 44.1873312 117.43367481 C28.84716092 103.11887768 18.34550878 86.86323284 7.60237026 68.96541309 C4.4797042 63.76794378 1.28036785 58.62417619 -1.96794224 53.50447559 C-2.44795689 52.74723194 -2.92797153 51.98998829 -3.42253208 51.20979786 C-4.89452118 48.89041241 -6.36851742 46.57231332 -7.84294224 44.25447559 C-10.05376053 40.77687933 -12.26155301 37.29738311 -14.46794224 33.81697559 C-14.97728306 33.01743458 -15.48662388 32.21789356 -16.01139927 31.39412403 C-16.48432407 30.64807911 -16.95724888 29.90203419 -17.44450474 29.13338184 C-17.86038853 28.47926319 -18.27627232 27.82514454 -18.70475864 27.15120411 C-22.07947477 21.52740111 -23.02759451 16.81075725 -21.84294224 10.25447559 C-19.48400593 6.03286335 -16.75354029 3.05548877 -12.26330191 1.17296821 C-8.07680587 0.04873975 -4.31253759 -0.0232107 0 0 Z " fill="#E5E7EF" transform="translate(503.842942237854,55.745524406433105)"/>
<path d="M0 0 C0.75635742 0.47203857 1.51271484 0.94407715 2.29199219 1.43041992 C4.86930866 3.04549359 7.43552577 4.67711611 10 6.3125 C11.44149414 7.22950684 11.44149414 7.22950684 12.91210938 8.16503906 C18.17681105 11.5176092 23.43307564 14.88307694 28.68359375 18.2578125 C34.54688106 22.02585396 40.42771158 25.76566463 46.3125 29.5 C53.23518063 33.89695484 60.13057281 38.33282219 67 42.8125 C76.69178609 49.13235418 86.44823122 55.34760363 96.21777344 61.54638672 C100.81447411 64.46429938 105.40703978 67.38870468 110 70.3125 C111.83331322 71.47919827 113.66664656 72.64586492 115.5 73.8125 C121 77.3125 121 77.3125 126.5 80.8125 C127.40741943 81.38991943 128.31483887 81.96733887 129.24975586 82.56225586 C131.08401023 83.72956785 132.91815729 84.89704847 134.75219727 86.06469727 C139.32057614 88.97287919 143.89075106 91.87815573 148.46484375 94.77734375 C157.87394634 100.74571031 167.24431385 106.76552326 176.5625 112.875 C184.7307906 118.22846736 192.97741058 123.4307429 201.29931641 128.54150391 C208.066399 132.70733372 214.74017969 137.00278468 221.38891602 141.35449219 C228.65137277 146.1039311 235.9713114 150.75968267 243.31616211 155.38061523 C266.99628882 170.35510754 266.99628882 170.35510754 271.58203125 184.05078125 C273.60399796 194.99207776 272.63988749 205.67153409 267 215.3125 C260.11138618 224.93674473 250.6298739 230.62840545 240.8125 236.875 C239.12514031 237.96427433 237.43879865 239.05512708 235.75341797 240.14746094 C232.25403944 242.41379463 228.75040716 244.67332103 225.24365234 246.92822266 C217.79189838 251.72764866 210.39700429 256.61304373 202.99972534 261.49581909 C199.05198893 264.10026482 195.10014685 266.69846298 191.1484375 269.296875 C190.38049362 269.80194077 189.61254974 270.30700653 188.82133484 270.82737732 C180.96674938 275.99293245 173.10938189 281.15424587 165.25 286.3125 C164.59607269 286.74168732 163.94214539 287.17087463 163.2684021 287.61306763 C156.43699886 292.09607291 149.60268724 296.5745715 142.76171875 301.04296875 C141.88892776 301.61315231 141.88892776 301.61315231 140.99850464 302.19485474 C138.31058838 303.95066069 135.62211883 305.70560762 132.93261719 307.45898438 C127.55163229 310.97154661 122.19083562 314.51236166 116.84765625 318.08203125 C107.6871729 324.20157344 98.47324788 330.23920526 89.26123047 336.28076172 C76.65168703 344.55207098 64.09720559 352.90205852 51.56350708 361.28771973 C47.97740015 363.68640435 44.39028785 366.08358282 40.80297852 368.48046875 C38.97723003 369.70099585 37.15203359 370.92234914 35.32739258 372.14453125 C25.71551802 378.58173899 16.10256676 384.99407013 6.23194885 391.03027344 C3.1531031 392.92118209 0.17465764 394.87949781 -2.7487793 397.00463867 C-10.50440158 402.50992496 -20.60386641 404.64896022 -30 403.3125 C-41.38157267 400.53346031 -49.9091253 394.31996723 -56 384.3125 C-59.83502344 375.14029877 -60.57503268 366.45276434 -60.50793457 356.61178589 C-60.51255454 355.17296887 -60.51891476 353.73415659 -60.52684355 352.29535401 C-60.54340939 348.37808354 -60.53534935 344.46120716 -60.52289867 340.54393601 C-60.51379792 336.30530636 -60.52784256 332.06674151 -60.53881836 327.828125 C-60.55655392 319.53964648 -60.55278608 311.2513133 -60.5411678 302.96282922 C-60.53211536 296.2245678 -60.53091728 289.48634697 -60.53526306 282.74808121 C-60.53587599 281.78719282 -60.53648893 280.82630443 -60.53712043 279.8362982 C-60.53839939 277.88398518 -60.53969625 275.93167217 -60.5410108 273.97935916 C-60.55240173 255.69676703 -60.53932561 237.41425528 -60.51780933 219.13167633 C-60.49993399 203.45769844 -60.50304894 187.78383904 -60.52148438 172.10986328 C-60.54290752 153.88729819 -60.55130924 135.66480341 -60.53903532 117.44222748 C-60.53776118 115.49791409 -60.5365037 113.55360068 -60.53526306 111.60928726 C-60.53464596 110.65275956 -60.53402886 109.69623186 -60.53339306 108.71071848 C-60.52994492 101.98258288 -60.53575681 95.25449204 -60.54518127 88.52636337 C-60.55641843 80.32427083 -60.55332492 72.12233133 -60.5320583 63.92025624 C-60.52157184 59.73856728 -60.5173849 55.55713319 -60.53065491 51.37544632 C-60.54263443 47.54236893 -60.53592569 43.70978103 -60.5147447 39.87674762 C-60.50820878 37.8445081 -60.52116466 35.8122342 -60.53497362 33.78003109 C-60.43287452 21.7788368 -57.22951586 11.17125988 -49.06640625 2.18359375 C-34.68382038 -11.73751877 -15.94523027 -10.16686139 0 0 Z " fill="#05B4FA" transform="translate(791,331.6875)"/>
<path d="M0 0 C5.4671157 3.38440496 9.06831731 9.0892028 10.55542649 15.33143794 C10.99156175 17.94934923 11.12650685 20.36188275 11.12880117 23.01339924 C11.13207336 24.00657485 11.13534555 24.99975046 11.13871691 26.02302229 C11.13723328 27.10892822 11.13574966 28.19483415 11.13422108 29.31364632 C11.13657331 30.4760327 11.13892554 31.63841908 11.14134905 32.83602929 C11.14687262 36.07281343 11.1479108 39.30956367 11.14707164 42.54635129 C11.14724117 46.06392846 11.15314765 49.58149674 11.1583125 53.09906948 C11.16764064 60.08041229 11.1715609 67.06174876 11.17383147 74.04309703 C11.17679295 82.40348952 11.18549001 90.76387359 11.19424575 99.12426166 C11.21509265 119.33191961 11.22556007 139.53957903 11.23437535 159.74724523 C11.23858124 169.30534329 11.24380329 178.86344072 11.24905988 188.42153825 C11.26694969 221.13494213 11.28194634 253.84834619 11.28938007 286.56175423 C11.28985483 288.61559882 11.29033072 290.6694434 11.29080774 292.72328799 C11.29104411 293.74181633 11.29128049 294.76034467 11.29152403 295.80973751 C11.29272523 300.97016355 11.29394068 306.13058959 11.29516602 311.29101562 C11.29552624 312.82717185 11.29552624 312.82717185 11.29589374 314.39436153 C11.30378821 347.60481889 11.3272233 380.81524054 11.35972196 414.02568231 C11.39401258 449.13136884 11.41373047 484.23703448 11.41702431 519.34273803 C11.41744186 523.19582678 11.41792142 527.04891551 11.41844749 530.90200424 C11.41857069 531.85075447 11.41869388 532.79950469 11.4188208 533.77700492 C11.4211537 549.05080494 11.43681855 564.32456353 11.45728934 579.59834877 C11.47753578 594.94814463 11.48303022 610.29789067 11.47351871 625.6476974 C11.46829928 634.76812231 11.4742021 643.88838146 11.49605338 653.00878254 C11.50954947 659.10206008 11.50849503 665.19522337 11.49565142 671.28850201 C11.48874686 674.75968784 11.48811187 678.23055652 11.50521151 681.70171417 C11.52027398 685.44519671 11.51069542 689.18784508 11.49498463 692.93130684 C11.50520683 694.00316577 11.51542904 695.0750247 11.52596101 696.1793642 C11.4539812 704.02865335 10.41303583 712.19682724 4.98630853 718.24387229 C-1.38875946 724.08076777 -6.08937055 725.53574267 -14.73828125 725.37109375 C-21.42492458 724.61033792 -25.24300914 721.2181494 -29.375 716.125 C-34.51560466 709.26128763 -34.28784169 701.64036617 -34.25447559 693.4346714 C-34.25768207 692.26937814 -34.26088855 691.10408488 -34.26419219 689.9034797 C-34.27106484 686.66784073 -34.26898805 683.43235002 -34.26313647 680.1967136 C-34.25896555 676.67696988 -34.26636847 673.15724733 -34.27228898 669.63750875 C-34.28105537 663.46825563 -34.28236153 657.29903571 -34.27878571 651.12977791 C-34.27348232 641.95583814 -34.27957034 632.78193055 -34.28786864 623.60799428 C-34.30311947 606.27090063 -34.3048126 588.93382157 -34.30234561 571.59672262 C-34.30051387 558.21023572 -34.30227006 544.82375361 -34.30657005 531.4372673 C-34.30717245 529.51491757 -34.30777365 527.59256784 -34.30837366 525.6702181 C-34.3092809 522.77352011 -34.31018956 519.87682211 -34.31110601 516.98012412 C-34.3195372 490.04353541 -34.32387008 463.1069485 -34.31969929 436.17035866 C-34.31954291 435.15462274 -34.31938654 434.13888682 -34.31922542 433.09237102 C-34.31841962 427.94406911 -34.31757385 422.79576721 -34.31671212 417.6474653 C-34.31654103 416.62497291 -34.31636994 415.60248051 -34.31619367 414.5490035 C-34.31584702 412.48127509 -34.31549849 410.41354668 -34.31514808 408.34581826 C-34.30979023 376.16803467 -34.31772246 343.99027848 -34.33618164 311.8125 C-34.35689036 275.6709112 -34.36762653 239.52933937 -34.36360615 203.38774431 C-34.3632108 199.53528428 -34.36284925 195.68282426 -34.36250877 191.83036423 C-34.36241804 190.88177216 -34.36232731 189.93318009 -34.36223383 188.9558428 C-34.36106711 174.62629229 -34.36772184 160.29675891 -34.37832069 145.96721268 C-34.39035992 129.67355386 -34.3919464 113.37993281 -34.37953053 97.08627345 C-34.37289174 87.96544848 -34.37455645 78.84471374 -34.38811904 69.72389596 C-34.39634691 63.63296821 -34.39368768 57.54210824 -34.38214377 51.45118603 C-34.37587082 47.97978251 -34.37432894 44.5085554 -34.38600711 41.0371619 C-34.39606545 37.29694598 -34.38773123 33.55720738 -34.37473011 29.81701088 C-34.38203946 28.74046962 -34.3893488 27.66392835 -34.39687964 26.55476463 C-34.32338465 16.39126051 -32.19987077 9.29125857 -25.10546875 1.88671875 C-17.68693756 -4.76105595 -8.50916343 -4.58185723 0 0 Z " fill="#3E74F7" transform="translate(388,202)"/>
<path d="M0 0 C5.65975513 3.81680995 8.39236726 8.94026761 10.1953125 15.48046875 C10.59082812 18.64612805 10.59913938 21.76667674 10.57283592 24.95397186 C10.57719624 25.8809695 10.58155657 26.80796714 10.58604902 27.76305562 C10.5969951 30.86851297 10.58658607 33.9735254 10.57626343 37.07897949 C10.57972023 39.3282009 10.58448495 41.57742062 10.59044516 43.82663679 C10.60298156 50.00702086 10.59677268 56.18726615 10.58748651 62.36765075 C10.58140347 68.3484778 10.58938795 74.32928165 10.5969286 80.31010337 C10.61272342 93.29723408 10.61135761 106.28432051 10.60269186 119.27145542 C10.59514556 130.63669911 10.59317493 142.00192656 10.5967598 153.36717224 C10.59698895 154.12102032 10.59721811 154.8748684 10.59745421 155.65156036 C10.59838822 158.71166621 10.59934342 161.77177205 10.6003335 164.83187789 C10.60951075 193.53872275 10.60118971 222.24553942 10.58504281 250.95237993 C10.57080596 276.45736345 10.57207984 301.96230203 10.58642578 327.46728516 C10.60248925 356.12158475 10.60885991 384.77585943 10.59958899 413.43016291 C10.59862684 416.48469702 10.59768832 419.53923114 10.5967598 422.59376526 C10.59652256 423.34587088 10.59628533 424.09797651 10.59604091 424.87287321 C10.59262832 436.23104646 10.59661965 447.58920169 10.60419846 458.94737244 C10.61277283 471.86196733 10.61063901 484.77651102 10.59435622 497.69109952 C10.58632006 504.28238722 10.58340012 510.87360245 10.59330368 517.46489143 C10.60222892 523.49619993 10.59735338 529.52733233 10.58137102 535.5586248 C10.57801404 537.74289941 10.57973781 539.92718883 10.58699839 542.11145395 C10.59610091 545.076837 10.58678406 548.04161434 10.57283592 551.00696564 C10.57985942 551.85803101 10.58688292 552.70909639 10.59411925 553.58595163 C10.51746465 561.72177045 8.11435613 569.63239687 2.1953125 575.48046875 C-3.53534571 579.5841589 -9.15420387 581.32286622 -16.1953125 580.96484375 C-23.17076524 579.66999923 -27.8590408 575.1171069 -31.8046875 569.48046875 C-34.72829121 563.84575311 -35.2351301 559.38283199 -35.18779755 553.08874798 C-35.19275706 552.15843825 -35.19771658 551.22812853 -35.20282638 550.2696276 C-35.2157976 547.14687283 -35.20739279 544.02454458 -35.19909668 540.90177917 C-35.20398485 538.64247103 -35.2101743 536.38316538 -35.21755457 534.123864 C-35.23398657 527.91088568 -35.23162948 521.69803398 -35.2261796 515.4850415 C-35.2237872 509.4740417 -35.23542496 503.46307914 -35.24655274 497.4520932 C-35.27146738 483.63855787 -35.27598153 469.82506119 -35.27408677 456.011507 C-35.27271387 445.34432383 -35.27653053 434.67715407 -35.28401184 424.00997353 C-35.28506218 422.47758737 -35.28610979 420.9452012 -35.2871547 419.41281504 C-35.28767405 418.65214707 -35.28819339 417.8914791 -35.28872847 417.10776059 C-35.28924862 416.34570236 -35.28976876 415.58364412 -35.29030466 414.79849321 C-35.29082865 414.03516153 -35.29135264 413.27182986 -35.29189252 412.48536692 C-35.30647688 391.01447396 -35.31475784 369.54358592 -35.31014252 348.0726881 C-35.30997056 347.26319498 -35.30979861 346.45370185 -35.30962144 345.61967863 C-35.30873255 341.51682503 -35.30778774 337.41397144 -35.30682343 333.31111785 C-35.3066324 332.49627527 -35.30644137 331.68143268 -35.30624454 330.8418979 C-35.30585745 329.19408786 -35.30546712 327.54627782 -35.30507357 325.89846779 C-35.29910373 300.25934204 -35.31454065 274.62030656 -35.34667969 248.98120117 C-35.38275639 220.1763633 -35.40208934 191.37158267 -35.39714098 162.56672078 C-35.396671 159.49528428 -35.39626075 156.42384778 -35.39588928 153.35241127 C-35.3957357 152.21801117 -35.3957357 152.21801117 -35.39557902 151.0606939 C-35.39438419 139.64416251 -35.40635143 128.22769295 -35.42503357 116.81117821 C-35.44627126 103.82669235 -35.45011979 90.8423362 -35.43073398 77.85784455 C-35.42131672 71.23184111 -35.42047406 64.60604039 -35.44108963 57.9800415 C-35.45975267 51.914565 -35.45534789 45.84955948 -35.43254381 39.78410117 C-35.42834632 37.5896645 -35.43259644 35.39519206 -35.44613975 33.20079317 C-35.57628016 10.57364074 -35.57628016 10.57364074 -28.00120687 2.5765025 C-19.61808669 -5.31008162 -9.85944428 -5.51696177 0 0 Z " fill="#4753F5" transform="translate(467.8046875,274.51953125)"/>
<path d="M0 0 C6.35320724 2.79388029 9.61194523 6.36752034 12.61340213 12.56491756 C14.81498934 19.09340713 14.3719535 25.97851027 14.32241821 32.79211426 C14.3281851 34.52191757 14.33613002 36.25171474 14.34605443 37.9814992 C14.36687311 42.71702698 14.35663527 47.45204914 14.34112334 52.18757844 C14.32979336 57.30151385 14.34728073 62.41536336 14.36102295 67.52928162 C14.38324226 77.54039252 14.37845994 87.55131586 14.36395974 97.56243408 C14.35266239 105.69952105 14.35113877 113.8365555 14.35657883 121.97364807 C14.35772807 123.71159942 14.35772807 123.71159942 14.35890054 125.48466089 C14.36049919 127.83849126 14.36212025 130.1923216 14.3637635 132.54615194 C14.37801717 154.61190184 14.36163422 176.67754784 14.33476166 198.74328071 C14.31242326 217.67184203 14.3163035 236.60025004 14.33935547 255.52880859 C14.36612016 277.5162348 14.37664391 299.50356997 14.36129415 321.49101019 C14.35970142 323.83612409 14.35812957 326.181238 14.35657883 328.52635193 C14.35542176 330.25705973 14.35542176 330.25705973 14.35424132 332.02273133 C14.34992634 340.14892993 14.35720654 348.27507073 14.36897659 356.40126038 C14.38300752 366.30600074 14.37918903 376.21054301 14.35257287 386.11526072 C14.33944282 391.16769476 14.33426865 396.21979864 14.35081863 401.27223015 C14.36574779 405.89987622 14.35748106 410.52688697 14.33093087 415.15447563 C14.32535848 416.82593883 14.32815843 418.49745601 14.34030981 420.16888434 C14.40589545 429.94202563 14.13543435 438.73198398 7.2095114 446.38264799 C1.40364647 451.59854919 -4.47194407 452.31485593 -12.01171875 452.1953125 C-18.57793316 451.30945635 -22.62639484 447.78197289 -26.75 442.8125 C-29.67598746 437.07756458 -30.56261465 431.79569201 -30.56976891 425.39856815 C-30.57327498 424.68883619 -30.57678105 423.97910422 -30.58039337 423.24786523 C-30.58967894 420.87553741 -30.58479149 418.50345661 -30.57992554 416.13111877 C-30.58366321 414.41073515 -30.58826521 412.69035322 -30.59365618 410.96997398 C-30.60588671 406.24675856 -30.60562566 401.52361396 -30.60326743 396.80038631 C-30.60285929 391.70486477 -30.61389806 386.60936594 -30.62338257 381.51385498 C-30.639993 371.53313977 -30.6454921 361.55244819 -30.64660732 351.57172031 C-30.64755762 343.46030033 -30.65166698 335.34888814 -30.65800858 327.23747063 C-30.67561981 304.24359967 -30.68484744 281.24974738 -30.68334763 258.25586963 C-30.68326772 257.01635209 -30.6831878 255.77683454 -30.68310547 254.49975586 C-30.68302371 253.25872649 -30.68294195 252.01769713 -30.68285771 250.73906081 C-30.68204447 230.61781462 -30.70119195 210.49664322 -30.7293822 190.37541867 C-30.75809482 169.71852641 -30.77192344 149.06167065 -30.77019465 128.40475792 C-30.76953027 116.80600096 -30.77504389 105.20732245 -30.79655075 93.60858345 C-30.81474102 83.73522602 -30.81912747 73.86198261 -30.8055319 63.9886157 C-30.79899186 58.95065822 -30.79892256 53.91291963 -30.8162384 48.87498283 C-30.8319279 44.26283848 -30.82914775 39.65108734 -30.81167014 35.03895282 C-30.80859119 33.37079214 -30.81226625 31.70260242 -30.82339029 30.03447599 C-30.92991739 12.92655778 -30.92991739 12.92655778 -24.3125 5.5078125 C-23.6525 4.96898437 -22.9925 4.43015625 -22.3125 3.875 C-21.6525 3.32070313 -20.9925 2.76640625 -20.3125 2.1953125 C-14.06552204 -2.31910517 -7.2420404 -2.51478822 0 0 Z " fill="#2B9BF8" transform="translate(303.3125,337.25)"/>
<path d="M0 0 C1.010625 0.66 2.02125 1.32 3.0625 2 C7.920898 6.29423377 10.51659205 12.7685159 11.46032441 19.07717526 C11.63776081 22.47820403 11.66204097 25.84658261 11.62818909 29.25209045 C11.63528347 30.54483602 11.64237786 31.83758158 11.64968723 33.16950125 C11.66848996 36.72847696 11.65644472 40.28675875 11.6389643 43.84571612 C11.62552869 47.69513809 11.64104939 51.54446263 11.65278625 55.39387512 C11.67112075 62.92299904 11.66267891 70.45186263 11.64469803 77.98097832 C11.63064695 84.10193037 11.62678461 90.22281197 11.6301403 96.34377861 C11.63061775 97.21641514 11.63109519 98.08905168 11.6315871 98.98813174 C11.63261347 100.76110957 11.63366883 102.53408739 11.63475286 104.30706518 C11.64331132 119.9681898 11.62667218 135.62918909 11.59692383 151.2902832 C11.56808357 166.47360497 11.56100634 181.65674624 11.57641602 196.84008789 C11.59319052 213.39077802 11.59720003 229.94138253 11.57970566 246.49207491 C11.57786135 248.25806231 11.57602662 250.02404973 11.57420158 251.79003716 C11.57328949 252.65884401 11.5723774 253.52765087 11.57143768 254.42278521 C11.56584043 260.53420677 11.56913183 266.64558642 11.57574654 272.75700569 C11.58349113 280.20783664 11.57668653 287.65849015 11.5515715 295.10928542 C11.53910306 298.90806409 11.53289747 302.70656688 11.54411316 306.50535583 C11.55605718 310.62878933 11.53684419 314.75150209 11.5146637 318.87489319 C11.52702485 320.66425508 11.52702485 320.66425508 11.53963572 322.4897657 C11.44415033 332.11705134 9.39111521 340.44910983 2.6171875 347.59375 C-2.41345387 351.96822075 -7.8774714 352.55941879 -14.2890625 352.33984375 C-20.58326745 351.55080077 -24.4883989 349.01674574 -28.375 344.0625 C-31.72205906 339.35978853 -33.24881051 335.20735185 -33.25726891 329.41513538 C-33.2637178 328.29666055 -33.27016669 327.17818571 -33.276811 326.02581769 C-33.2737138 324.80209964 -33.2706166 323.57838159 -33.26742554 322.31758118 C-33.27195665 321.01362796 -33.27648776 319.70967473 -33.28115618 318.36620778 C-33.29339252 314.74828158 -33.29312497 311.13044782 -33.29076743 307.51250565 C-33.29035942 303.60982915 -33.30139707 299.70718233 -33.31088257 295.80451965 C-33.32749782 288.1583513 -33.33299238 280.51221378 -33.33410732 272.86602888 C-33.3350577 266.6496004 -33.33916749 260.43318209 -33.34550858 254.21675682 C-33.36312366 236.58893994 -33.37234722 218.96114741 -33.37084763 201.33332167 C-33.37076772 200.38293733 -33.3706878 199.432553 -33.37060547 198.45336914 C-33.37048283 197.02604997 -33.37048283 197.02604997 -33.37035771 195.56989606 C-33.36954509 180.15426198 -33.388676 164.73872567 -33.4168822 149.32311986 C-33.44562087 133.49143257 -33.4594219 117.65979295 -33.45769465 101.82807893 C-33.45703101 92.94106715 -33.46251166 84.05415783 -33.48405075 75.16716957 C-33.50227565 67.59910577 -33.50659929 60.03119085 -33.4930319 52.4631146 C-33.48650836 48.60360391 -33.48636248 44.74437873 -33.5037384 40.88489532 C-33.52240514 36.69549392 -33.50989841 32.50675155 -33.49447632 28.31733704 C-33.50476344 27.10477259 -33.51505057 25.89220815 -33.52564943 24.64289933 C-33.46194166 16.80539 -32.67551423 9.16920159 -27.29172647 3.06227475 C-19.83554186 -3.92663986 -8.73206282 -5.75522322 0 0 Z " fill="#5141F5" transform="translate(547,389)"/>
<path d="M0 0 C6.46493981 3.78887866 9.87198356 8.89042465 12.08833325 15.92425358 C13.1186205 20.24586478 13.10359243 24.48148134 13.07518005 28.90550232 C13.08056559 29.92294102 13.08595113 30.94037973 13.09149987 31.9886499 C13.10574231 35.37854468 13.09868476 38.76804692 13.09155273 42.15795898 C13.09725821 44.59623528 13.10422315 47.0345089 13.11235046 49.47277832 C13.12841698 55.39654809 13.13038659 61.32021983 13.12513756 67.24399977 C13.12108758 72.06112066 13.12254923 76.87821026 13.12788582 81.69532967 C13.12863424 82.38228798 13.12938266 83.06924629 13.13015376 83.77702152 C13.13168532 85.1728034 13.13322367 86.56858529 13.13476873 87.96436716 C13.14847964 101.03779829 13.1430659 114.11116948 13.13158352 127.18459923 C13.12165145 139.13070515 13.1345938 151.07665618 13.15851771 163.02273821 C13.18293112 175.30632232 13.19251116 187.58983436 13.18586498 199.87344223 C13.18237788 206.76284132 13.18457114 213.65212132 13.20211601 220.541502 C13.21841101 227.02011202 13.21362152 233.49849937 13.19481087 239.97710419 C13.19112701 242.35143286 13.19422745 244.72578348 13.20469666 247.10009193 C13.21792152 250.34790528 13.20634478 253.59474215 13.18870544 256.84251404 C13.19831045 257.77609267 13.20791546 258.70967131 13.21781152 259.6715402 C13.11859807 268.58497634 10.45644125 276.50116066 4.234375 283.03125 C-0.79687819 287.60511654 -5.76315131 288.03921333 -12.34375 287.84375 C-18.79846589 286.96047309 -22.68780714 283.50442819 -26.6875 278.5625 C-31.54849367 272.07212297 -31.6053768 264.94077613 -31.57992554 257.16531372 C-31.58445665 256.14479475 -31.58898776 255.12427578 -31.59365618 254.07283199 C-31.60629454 250.66065027 -31.60468016 247.24862828 -31.60302734 243.83642578 C-31.60901288 241.38697098 -31.61581848 238.93751806 -31.62338257 236.48806763 C-31.63921191 230.52961444 -31.64549076 224.57122382 -31.64660732 218.61275543 C-31.64755906 213.76793268 -31.65167562 208.92312293 -31.65800858 204.07830429 C-31.675612 190.33086359 -31.6848487 176.58345406 -31.68334763 162.83600201 C-31.68326772 162.09557545 -31.6831878 161.35514889 -31.68310547 160.59228516 C-31.68302371 159.85095077 -31.68294195 159.10961638 -31.68285771 158.34581731 C-31.68204477 146.33101587 -31.70118671 134.31633979 -31.7293822 122.3015746 C-31.75813007 109.9536551 -31.77192149 97.60579671 -31.77019465 85.2578429 C-31.76953147 78.32987284 -31.77499234 71.40203424 -31.79655075 64.47409439 C-31.81669653 57.95858852 -31.81606947 51.44331261 -31.80151749 44.92777634 C-31.7994262 42.5385116 -31.80414923 40.14922957 -31.8162384 37.75999451 C-31.83169069 34.49422164 -31.82238191 31.22940604 -31.80697632 27.96365356 C-31.82240701 26.55103357 -31.82240701 26.55103357 -31.83814943 25.1098758 C-31.74691715 16.33687062 -28.87618296 9.3095778 -22.86328125 2.87890625 C-16.65666627 -2.88996258 -7.61684725 -3.39176308 0 0 Z " fill="#05D7F5" transform="translate(186.3125,419.5625)"/>
<path d="M0 0 C6.24258323 2.09390723 10.98827106 7.2370723 14 13 C14.86855649 17.21831131 15.13082741 21.23805199 15.14717102 25.53863525 C15.15432632 26.83662552 15.16148163 28.13461578 15.16885376 29.47193909 C15.17169351 30.89828467 15.1744053 32.32463051 15.17700195 33.75097656 C15.18327286 35.26271214 15.18992022 36.77444619 15.19691467 38.28617859 C15.2178799 43.23764996 15.22830885 48.18912138 15.23828125 53.140625 C15.24233139 54.84977992 15.24644839 56.55893469 15.25063133 58.26808929 C15.26966513 66.29848344 15.28390088 74.32886848 15.2922433 82.35928082 C15.30201425 91.6102715 15.3283376 100.86102282 15.36874419 110.11192918 C15.39895436 117.27563113 15.41371674 124.43926463 15.41702431 131.60302901 C15.41936883 135.87570197 15.42825137 140.14811868 15.45348549 144.42072296 C15.47685791 148.44275952 15.48096295 152.46437272 15.47072411 156.48645973 C15.47023089 157.95615616 15.47648783 159.42587411 15.49028015 160.89550591 C15.56941392 169.83306347 15.57634291 178.94663171 9.2498827 185.93254471 C3.22873757 191.52574879 -2.68667878 192.58363067 -10.76953125 192.4375 C-15.7886018 191.75777098 -18.67527774 189.73343516 -22 186 C-26.27395399 180.31210635 -28.12071239 175.83485188 -28.14717102 168.65681458 C-28.15084771 168.010611 -28.1545244 167.36440743 -28.1583125 166.69862193 C-28.16934164 164.52929787 -28.17319188 162.36002172 -28.17700195 160.19067383 C-28.18326725 158.63672738 -28.18991411 157.08278242 -28.19691467 155.52883911 C-28.21795182 150.42158043 -28.2283176 145.31432146 -28.23828125 140.20703125 C-28.24232911 138.44799979 -28.24644604 136.6889685 -28.25063133 134.92993736 C-28.26968325 126.66460516 -28.28391356 118.39928188 -28.2922433 110.13393193 C-28.30201229 100.59820175 -28.32832292 91.0627039 -28.36874419 81.52705556 C-28.39892512 74.15368066 -28.4137141 66.78037228 -28.41702431 59.40693682 C-28.4193728 55.0046185 -28.42830677 50.60254838 -28.45348549 46.2002964 C-28.47680553 42.05601379 -28.48098378 37.9121421 -28.47072411 33.76781082 C-28.47022957 32.25051314 -28.47652589 30.73319497 -28.49028015 29.21595955 C-28.56901717 20.01209358 -28.42265505 12.86492056 -21.9296875 5.72265625 C-21.25164063 5.17480469 -20.57359375 4.62695312 -19.875 4.0625 C-19.19179688 3.49660156 -18.50859375 2.93070312 -17.8046875 2.34765625 C-12.67441978 -1.48338782 -6.11715961 -0.57810519 0 0 Z " fill="#5B3BF7" transform="translate(618,464)"/>
<path d="M0 0 C5.47029316 3.85072397 8.82269306 8.99624616 10.88671875 15.328125 C11.16587101 18.12737159 11.30808858 20.69910324 11.29077148 23.49145508 C11.29763474 24.27620712 11.30449799 25.06095917 11.31156921 25.86949158 C11.3297652 28.44573425 11.32600918 31.02136353 11.3203125 33.59765625 C11.32487868 35.40215755 11.33018555 37.20665711 11.3361969 39.01115417 C11.34511458 42.78786291 11.34272129 46.56436006 11.33276367 50.34106445 C11.3212923 55.15934651 11.34146411 59.97689367 11.37068081 64.79507923 C11.38911112 68.52109856 11.38873651 72.24694414 11.38304329 75.97299767 C11.38289082 77.74824744 11.3888731 79.52350955 11.40133476 81.29871559 C11.52810396 102.32166689 11.52810396 102.32166689 5.10740662 109.24739075 C-0.87858883 114.74651015 -5.75755118 115.84823899 -13.84765625 115.703125 C-19.48590824 115.05567023 -22.98561904 112.76507144 -26.671875 108.54296875 C-30.80403549 103.02951949 -31.27067396 98.69499029 -31.30615234 92.03637695 C-31.31432983 91.19047501 -31.32250732 90.34457306 -31.33093262 89.47303772 C-31.35576371 86.67083439 -31.37229835 83.86868171 -31.38671875 81.06640625 C-31.39204243 80.10827719 -31.3973661 79.15014812 -31.4028511 78.16298485 C-31.42957499 73.08986588 -31.44895082 68.01677143 -31.46337891 62.94360352 C-31.47670967 58.75034734 -31.50454754 54.55757877 -31.54541016 50.36450195 C-31.59479212 45.29704548 -31.61950704 40.23003079 -31.62660599 35.16234398 C-31.63330854 33.2346839 -31.64850462 31.3070333 -31.6724968 29.37951088 C-31.70423757 26.67477102 -31.70417177 23.97172412 -31.69677734 21.2668457 C-31.71318268 20.47745605 -31.72958801 19.68806641 -31.74649048 18.87475586 C-31.67272057 12.24926224 -29.19108346 7.5941038 -24.67049217 2.79712391 C-17.43393665 -3.70976822 -8.37300886 -4.67177705 0 0 Z " fill="#07E6F5" transform="translate(97.11328125,502.671875)"/>
<path d="M0 0 C5.39966141 3.73485708 8.14796857 8.06960814 9.92578125 14.33203125 C10.19320679 17.68170166 10.19320679 17.68170166 10.21630859 21.37207031 C10.22302582 22.04938705 10.22974304 22.7267038 10.23666382 23.42454529 C10.25555709 25.64899166 10.25956389 27.87313478 10.26171875 30.09765625 C10.2681539 31.6569633 10.27488279 33.21626915 10.28189087 34.77557373 C10.29384283 38.04035233 10.29757397 41.3050253 10.29638672 44.56982422 C10.29618392 48.73011192 10.32345418 52.88971353 10.35793114 57.04983902 C10.38029687 60.27057942 10.38422128 63.4911574 10.38316727 66.71196747 C10.38550992 68.24440621 10.39425725 69.77685035 10.409832 71.30921173 C10.58262847 90.0698695 10.58262847 90.0698695 4.47836304 96.96759033 C-0.94112363 101.73034706 -5.34090891 102.79978194 -12.390625 102.640625 C-18.47933226 101.94046798 -21.93927727 97.66252939 -25.77734375 93.30859375 C-28.86977597 88.59542899 -29.33235334 83.81600392 -29.38061523 78.29199219 C-29.38893875 77.61467545 -29.39726227 76.9373587 -29.40583801 76.23951721 C-29.4298008 74.01508722 -29.43869393 71.79095137 -29.4453125 69.56640625 C-29.45429067 68.0070996 -29.46341272 66.44779378 -29.47267151 64.88848877 C-29.48912781 61.6237174 -29.49685522 58.35904814 -29.49975586 55.09423828 C-29.50513016 50.93381668 -29.54278411 46.77437037 -29.58850002 42.61422348 C-29.61841226 39.39347938 -29.62548249 36.17296589 -29.62648201 32.95209503 C-29.63065783 31.41963494 -29.64298485 29.88717246 -29.66399956 28.35485077 C-29.78568957 18.71291705 -29.36506866 10.18576542 -22.59593201 2.69647217 C-15.68859292 -3.49697856 -8.08744737 -4.44417011 0 0 Z " fill="#11C3F6" transform="translate(246.07421875,511.66796875)"/>
<path d="M0 0 C4.34640354 3.10207027 7.64484982 6.82240287 9.625 11.8125 C9.82472595 14.31473823 9.91879934 16.70607617 9.91552734 19.20800781 C9.92224457 19.94676651 9.92896179 20.68552521 9.93588257 21.44667053 C9.95486244 23.8863907 9.95878713 26.32583561 9.9609375 28.765625 C9.9673669 30.46710319 9.97409537 32.16858027 9.98110962 33.87005615 C9.99308339 37.43764812 9.99679049 41.00514326 9.99560547 44.57275391 C9.99540261 49.13010647 10.02266983 53.68683314 10.05714989 58.24403763 C10.07946211 61.75979424 10.08344164 65.27540147 10.08238602 68.79122162 C10.08473681 70.4704478 10.09353085 72.14967843 10.10905075 73.82883453 C10.24544182 90.11423916 10.24544182 90.11423916 5.625 96.8125 C3.80859375 98.65234375 3.80859375 98.65234375 2.0625 99.75 C1.48371094 100.13027344 0.90492188 100.51054688 0.30859375 100.90234375 C-4.61795758 103.5656534 -9.93244629 103.36690648 -15.375 102.8125 C-20.79804506 100.20140423 -24.80328259 95.95855818 -27.49945068 90.5617218 C-28.57549824 87.18293621 -28.62925144 84.30953691 -28.63378906 80.76245117 C-28.6372937 80.0723143 -28.64079834 79.38217743 -28.64440918 78.67112732 C-28.65318085 76.39913749 -28.64739168 74.12746153 -28.640625 71.85546875 C-28.64197343 70.26752157 -28.64391544 68.6795748 -28.64642334 67.09162903 C-28.64936881 63.76539169 -28.64509726 60.43926192 -28.63574219 57.11303711 C-28.62437588 52.86640142 -28.63089279 48.62001935 -28.64288712 44.37339306 C-28.65014518 41.09355287 -28.64779926 37.81377188 -28.64263153 34.53392982 C-28.64130448 32.96915977 -28.64290939 31.40438421 -28.64759064 29.83962059 C-28.69548071 9.32442656 -28.69548071 9.32442656 -21.15625 1.4453125 C-15.42453259 -3.80876179 -6.56476225 -3.9020456 0 0 Z " fill="#5939F4" transform="translate(682.375,511.1875)"/>
</svg>
